# Blender 4.4.0
# www.blender.org
mtllib cube.mtl
o Cube
v 0.500000 0.500000 -0.500000
v 0.500000 -0.500000 -0.500000
v 0.500000 0.500000 0.500000
v 0.500000 -0.500000 0.500000
v -0.500000 0.500000 -0.500000
v -0.500000 -0.500000 -0.500000
v -0.500000 0.500000 0.500000
v -0.500000 -0.500000 0.500000
vn -0.0000 1.0000 -0.0000
vn -0.0000 -0.0000 1.0000
vn -1.0000 -0.0000 -0.0000
vn -0.0000 -1.0000 -0.0000
vn 1.0000 -0.0000 -0.0000
vn -0.0000 -0.0000 -1.0000
vt 1.000000 0.000000
vt 0.000000 1.000000
vt 0.000000 0.000000
vt 0.998918 0.001082
vt 0.001082 0.998918
vt 0.001082 0.001082
vt 1.000000 1.000000
vt 0.998918 0.998918
s 1
usemtl Material.001
f 5/1/1 3/2/1 1/3/1
f 3/1/2 8/2/2 4/3/2
f 7/1/3 6/2/3 8/3/3
f 2/1/4 8/2/4 6/3/4
f 1/1/5 4/2/5 2/3/5
f 5/4/6 2/5/6 6/6/6
f 5/1/1 7/7/1 3/2/1
f 3/1/2 7/7/2 8/2/2
f 7/1/3 5/7/3 6/2/3
f 2/1/4 4/7/4 8/2/4
f 1/1/5 3/7/5 4/2/5
f 5/4/6 1/8/6 2/5/6
