# Blender 4.4.0
# www.blender.org
mtllib test_complex_model.mtl
o Cube
v 0.826561 1.000000 -0.826561
v 0.867976 -1.000000 -0.867976
v 0.826561 1.000000 0.826561
v 0.867976 -1.000000 0.867976
v -0.826561 1.000000 -0.826561
v -0.867976 -1.000000 -0.867976
v -0.826561 1.000000 0.826561
v -0.867976 -1.000000 0.867976
v 1.000000 1.000000 1.000000
v -1.000000 1.000000 1.000000
v 1.000000 1.000000 -1.000000
v -1.000000 1.000000 -1.000000
v 0.422682 0.394025 0.422682
v -0.422682 0.394025 0.422682
v 0.422682 0.394025 -0.422682
v -0.422682 0.394025 -0.422682
v 0.826561 0.394025 0.826561
v -0.826561 0.394025 0.826561
v 0.826561 0.394025 -0.826561
v -0.826561 0.394025 -0.826561
v -1.000000 -1.000000 -1.000000
v -1.000000 -1.000000 1.000000
v 1.000000 -1.000000 -1.000000
v 1.000000 -1.000000 1.000000
v -0.867976 -0.758654 -0.867976
v -0.867976 -0.758654 0.867976
v 0.867976 -0.758654 -0.867976
v 0.867976 -0.758654 0.867976
v 0.814547 -0.814547 1.000000
v 0.814547 0.814547 1.000000
v -0.814547 0.814547 1.000000
v -0.814547 -0.814547 1.000000
v -1.000000 -0.814547 0.814547
v -1.000000 0.814547 0.814547
v -1.000000 0.814547 -0.814547
v -1.000000 -0.814547 -0.814547
v 1.000000 -0.814547 -0.814547
v 1.000000 0.814547 -0.814547
v 1.000000 0.814547 0.814547
v 1.000000 -0.814547 0.814547
v -0.814547 -0.814547 -1.000000
v -0.814547 0.814547 -1.000000
v 0.814547 0.814547 -1.000000
v 0.814547 -0.814547 -1.000000
v 0.814547 0.814547 0.938187
v 0.814547 -0.814547 0.938187
v -0.814547 -0.814547 0.938187
v -0.814547 0.814547 0.938187
v -0.938187 -0.814547 0.814547
v -0.938187 0.814547 0.814547
v -0.938187 -0.814547 -0.814547
v -0.938187 0.814547 -0.814547
v 0.938187 0.814547 -0.814547
v 0.938187 -0.814547 -0.814547
v 0.938187 -0.814547 0.814547
v 0.938187 0.814547 0.814547
v -0.814547 0.814547 -0.938187
v -0.814547 -0.814547 -0.938187
v 0.814547 -0.814547 -0.938187
v 0.814547 0.814547 -0.938187
v 0.996906 2.865620 -0.996906
v -0.996906 2.865620 -0.996906
v -0.996906 2.865620 0.996906
v 0.996906 2.865620 0.996906
v 0.409073 3.188429 -0.409073
v -0.409073 3.188429 -0.409073
v -0.409073 3.188429 0.409073
v 0.409073 3.188429 0.409073
v -0.409073 2.962458 -0.409073
v 0.409073 2.962458 -0.409073
v 0.409073 2.962458 0.409073
v -0.409073 2.962458 0.409073
v -0.996906 3.049397 -0.996906
v -0.857873 3.188429 -0.857873
v 0.857873 3.188429 -0.857873
v 0.996906 3.049397 -0.996906
v 0.857873 3.188429 0.857873
v 0.996906 3.049397 0.996906
v -0.996906 3.049397 0.996906
v -0.857873 3.188429 0.857873
v 1.102286 2.758122 1.102286
v 1.061435 2.865620 1.061435
v -1.061435 2.865620 1.061435
v -1.102286 2.758122 1.102286
v 1.102286 2.758122 -1.102286
v 1.061435 2.865620 -1.061435
v -1.061435 2.865620 -1.061435
v -1.102286 2.758122 -1.102286
v -0.989954 1.928339 0.989955
v 0.989954 1.928339 0.989954
v 0.989954 1.928339 -0.989954
v -0.989954 1.928339 -0.989955
v 0.869981 2.064242 -1.008352
v -0.869981 2.064242 -1.008352
v -0.945517 2.622219 -1.083888
v 0.945517 2.622219 -1.083888
v -1.008352 2.064242 -0.869981
v -1.008352 2.064242 0.869981
v -1.083888 2.622219 0.945517
v -1.083888 2.622219 -0.945517
v -0.869981 2.064242 1.008352
v 0.869981 2.064242 1.008352
v 0.945517 2.622219 1.083888
v -0.945517 2.622219 1.083888
v 1.008352 2.064242 0.869981
v 1.008352 2.064242 -0.869981
v 1.083888 2.622219 -0.945517
v 1.083888 2.622219 0.945517
v -0.869981 2.074723 -0.930931
v 0.869981 2.074723 -0.930931
v 0.945517 2.632700 -1.006467
v -0.945517 2.632700 -1.006467
v -0.930931 2.074723 0.869981
v -0.930931 2.074723 -0.869981
v -1.006467 2.632700 -0.945517
v -1.006467 2.632700 0.945517
v 0.869981 2.074723 0.930931
v -0.869981 2.074723 0.930931
v -0.945517 2.632700 1.006467
v 0.945517 2.632700 1.006467
v 0.930931 2.074723 -0.869981
v 0.930931 2.074723 0.869981
v 1.006467 2.632700 0.945517
v 1.006467 2.632700 -0.945517
vn 1.0000 -0.0000 -0.0000
vn -0.0000 -0.0000 1.0000
vn -0.0000 1.0000 -0.0000
vn -0.0000 -0.0000 -1.0000
vn -1.0000 -0.0000 -0.0000
vn -0.0000 -1.0000 -0.0000
vn 0.9911 0.1318 0.0178
vn 0.9911 0.1318 -0.0178
vn 0.1342 0.9910 -0.0000
vn -0.0178 0.1318 0.9911
vn -0.0000 0.7071 -0.7071
vn 0.7071 0.7071 -0.0000
vn -0.7071 0.7071 -0.0000
vn -0.0000 0.7071 0.7071
vn -0.0000 0.3552 0.9348
vn 0.9348 0.3552 -0.0000
vn -0.9348 0.3552 -0.0000
vn -0.0000 0.3552 -0.9348
vn 0.9379 -0.3468 -0.0000
vn -0.0000 -0.3468 0.9379
vn -0.9379 -0.3468 -0.0000
vn -0.0000 -0.3468 -0.9379
vn -0.0000 -0.1342 -0.9910
vn -0.9910 -0.1342 -0.0000
vn -0.0000 -0.1342 0.9910
vn 0.9910 -0.1342 -0.0000
vn -0.0178 0.1318 -0.9911
vn 0.0178 0.1318 -0.9911
vn -0.0000 -0.9910 0.1342
vn -0.9911 0.1318 0.0178
vn 0.1342 -0.9910 -0.0000
vn 0.0178 0.1318 0.9911
vn -0.0000 -0.9910 -0.1342
vn -0.1341 -0.9910 -0.0000
vn -0.0000 0.9910 -0.1342
vn -0.1342 0.9910 -0.0000
vn -0.9911 0.1318 -0.0178
vn -0.0000 0.9910 0.1342
vt 0.853320 0.521680
vt 0.853320 0.728320
vt 0.398182 0.523182
vt 0.601818 0.523182
vt 0.398182 0.976818
vt 0.398182 0.773182
vt 0.358497 0.733497
vt 0.141503 0.733497
vt 0.398182 0.023182
vt 0.601818 0.023182
vt 0.601818 0.773182
vt 0.646680 0.728320
vt 0.875000 0.750000
vt 0.625000 0.750000
vt 0.646680 0.521680
vt 0.625000 0.500000
vt 0.875000 0.500000
vt 0.697165 0.677835
vt 0.802835 0.677835
vt 0.697165 0.572165
vt 0.802835 0.572165
vt 0.709545 0.665455
vt 0.709545 0.584545
vt 0.730709 0.605709
vt 0.730709 0.644291
vt 0.800054 0.574946
vt 0.800054 0.675054
vt 0.797011 0.672011
vt 0.797011 0.577989
vt 0.699946 0.574946
vt 0.800054 0.574946
vt 0.702989 0.577989
vt 0.699946 0.675054
vt 0.702989 0.672011
vt 0.141503 0.516503
vt 0.125000 0.750000
vt 0.125000 0.500000
vt 0.358497 0.516503
vt 0.375000 0.500000
vt 0.375000 0.750000
vt 0.625000 1.000000
vt 0.601818 0.976818
vt 0.375000 1.000000
vt 0.375000 0.000000
vt 0.625000 0.000000
vt 0.625000 0.250000
vt 0.601818 0.226818
vt 0.375000 0.250000
vt 0.398182 0.226818
vt 0.601818 0.726818
vt 0.398182 0.726818
vt 0.601818 0.273182
vt 0.398182 0.273182
vt 0.601818 0.476818
vt 0.398182 0.476818
vt 0.796017 0.677835
vt 0.795712 0.677835
vt 0.795712 0.572165
vt 0.796017 0.572165
vt 0.697165 0.670712
vt 0.697165 0.579288
vt 0.802835 0.578983
vt 0.802836 0.579288
vt 0.790455 0.584545
vt 0.790455 0.665455
vt 0.769291 0.644291
vt 0.769291 0.605709
vt 0.797011 0.577989
vt 0.702989 0.672011
vt 0.709545 0.584545
vt 0.800054 0.675054
vt 0.802835 0.677835
vt 0.802836 0.572165
vt 0.704288 0.572165
vt 0.703983 0.572165
vt 0.802835 0.670712
vt 0.802835 0.671017
vt 0.704288 0.677835
vt 0.703983 0.677835
vt 0.697165 0.578983
vt 0.697165 0.671017
s 0
usemtl Material
f 5/1/1 7/2/1 18/2/1 20/1/1
f 37/3/2 38/4/2 53/4/2 54/3/2
f 32/5/3 29/6/3 46/6/3 47/5/3
f 4/7/4 8/8/4 26/8/4 28/7/4
f 33/9/4 34/10/4 50/10/4 49/9/4
f 29/6/5 30/11/5 45/11/5 46/6/5
f 3/12/3 7/2/3 10/13/3 9/14/3
f 1/15/3 3/12/3 9/14/3 11/16/3
f 7/2/3 5/1/3 12/17/3 10/13/3
f 5/1/3 1/15/3 11/16/3 12/17/3
f 7/2/4 3/12/4 17/12/4 18/2/4
f 1/15/2 5/1/2 20/1/2 19/15/2
f 3/12/5 1/15/5 19/15/5 17/12/5
f 13/18/3 14/19/3 18/2/3 17/12/3
f 15/20/3 13/18/3 17/12/3 19/15/3
f 14/19/3 16/21/3 20/1/3 18/2/3
f 16/21/3 15/20/3 19/15/3 20/1/3
f 77/22/3 75/23/3 65/24/3 68/25/3
f 87/26/3 83/27/3 63/28/3 62/29/3
f 86/30/3 87/31/3 62/29/3 61/32/3
f 82/33/3 86/30/3 61/32/3 64/34/3
f 6/35/6 8/8/6 22/36/6 21/37/6
f 2/38/6 6/35/6 21/37/6 23/39/6
f 8/8/6 4/7/6 24/40/6 22/36/6
f 4/7/6 2/38/6 23/39/6 24/40/6
f 25/35/6 27/38/6 28/7/6 26/8/6
f 8/8/1 6/35/1 25/35/1 26/8/1
f 2/38/5 4/7/5 28/7/5 27/38/5
f 6/35/2 2/38/2 27/38/2 25/35/2
f 24/40/2 9/14/2 30/11/2 29/6/2
f 9/14/2 10/41/2 31/42/2 30/11/2
f 10/41/2 22/43/2 32/5/2 31/42/2
f 22/43/2 24/40/2 29/6/2 32/5/2
f 22/44/5 10/45/5 34/10/5 33/9/5
f 10/45/5 12/46/5 35/47/5 34/10/5
f 12/46/5 21/48/5 36/49/5 35/47/5
f 21/48/5 22/44/5 33/9/5 36/49/5
f 23/39/1 11/16/1 38/4/1 37/3/1
f 11/16/1 9/14/1 39/50/1 38/4/1
f 9/14/1 24/40/1 40/51/1 39/50/1
f 24/40/1 23/39/1 37/3/1 40/51/1
f 21/48/4 12/46/4 42/52/4 41/53/4
f 12/46/4 11/16/4 43/54/4 42/52/4
f 11/16/4 23/39/4 44/55/4 43/54/4
f 23/39/4 21/48/4 41/53/4 44/55/4
f 46/6/2 45/11/2 48/42/2 47/5/2
f 49/9/5 50/10/5 52/47/5 51/49/5
f 54/3/1 53/4/1 56/50/1 55/51/1
f 58/53/4 57/52/4 60/54/4 59/55/4
f 36/49/3 33/9/3 49/9/3 51/49/3
f 41/53/1 42/52/1 57/52/1 58/53/1
f 30/11/6 31/42/6 48/42/6 45/11/6
f 40/51/3 37/3/3 54/3/3 55/51/3
f 34/10/6 35/47/6 52/47/6 50/10/6
f 44/55/3 41/53/3 58/53/3 59/55/3
f 31/42/1 32/5/1 47/5/1 48/42/1
f 38/4/6 39/50/6 56/50/6 53/4/6
f 35/47/2 36/49/2 51/49/2 52/47/2
f 42/52/6 43/54/6 60/54/6 57/52/6
f 39/50/4 40/51/4 55/51/4 56/50/4
f 43/54/5 44/55/5 59/55/5 60/54/5
f 104/56/7 101/57/7 118/57/7 119/56/7
f 94/58/8 95/59/8 112/59/8 109/58/8
f 105/60/9 106/61/9 121/61/9 122/60/9
f 100/62/10 97/63/10 114/63/10 115/62/10
f 68/25/5 65/24/5 70/24/5 71/25/5
f 74/64/3 80/65/3 67/66/3 66/67/3
f 80/65/3 77/22/3 68/25/3 67/66/3
f 61/32/4 62/29/4 73/29/4 76/32/4
f 62/29/5 63/28/5 79/28/5 73/68/5
f 63/28/2 64/34/2 78/34/2 79/28/2
f 64/34/1 61/32/1 76/32/1 78/69/1
f 70/24/3 69/67/3 72/66/3 71/25/3
f 66/67/1 67/66/1 72/66/1 69/67/1
f 65/24/2 66/67/2 69/67/2 70/24/2
f 67/66/4 68/25/4 71/25/4 72/66/4
f 74/64/11 75/70/11 76/32/11 73/29/11
f 75/23/12 77/22/12 78/69/12 76/32/12
f 80/65/13 74/64/13 73/68/13 79/28/13
f 77/22/14 80/65/14 79/28/14 78/34/14
f 75/70/3 74/64/3 66/67/3 65/24/3
f 82/33/15 83/71/15 84/19/15 81/18/15
f 86/30/16 82/33/16 81/18/16 85/20/16
f 83/27/17 87/26/17 88/21/17 84/19/17
f 87/31/18 86/30/18 85/20/18 88/21/18
f 83/71/3 82/33/3 64/34/3 63/28/3
f 13/18/19 15/20/19 91/20/19 90/18/19
f 14/19/20 13/18/20 90/18/20 89/72/20
f 16/21/21 14/19/21 89/72/21 92/73/21
f 15/20/22 16/21/22 92/73/22 91/20/22
f 91/20/23 92/73/23 94/58/23 93/74/23
f 92/73/23 88/21/23 95/59/23 94/58/23
f 88/21/23 85/20/23 96/75/23 95/59/23
f 85/20/23 91/20/23 93/74/23 96/75/23
f 92/73/24 89/72/24 98/76/24 97/63/24
f 89/72/24 84/19/24 99/77/24 98/76/24
f 84/19/24 88/21/24 100/62/24 99/77/24
f 88/21/24 92/73/24 97/63/24 100/62/24
f 89/72/25 90/18/25 102/78/25 101/57/25
f 90/18/25 81/18/25 103/79/25 102/78/25
f 81/18/25 84/19/25 104/56/25 103/79/25
f 84/19/25 89/72/25 101/57/25 104/56/25
f 90/18/26 91/20/26 106/61/26 105/60/26
f 91/20/26 85/20/26 107/80/26 106/61/26
f 85/20/26 81/18/26 108/81/26 107/80/26
f 81/18/26 90/18/26 105/60/26 108/81/26
f 110/74/23 109/58/23 112/59/23 111/75/23
f 114/63/24 113/76/24 116/77/24 115/62/24
f 118/57/25 117/78/25 120/79/25 119/56/25
f 122/60/26 121/61/26 124/80/26 123/81/26
f 98/76/27 99/77/27 116/77/27 113/76/27
f 108/81/28 105/60/28 122/60/28 123/81/28
f 95/59/29 96/75/29 111/75/29 112/59/29
f 102/78/30 103/79/30 120/79/30 117/78/30
f 99/77/31 100/62/31 115/62/31 116/77/31
f 106/61/32 107/80/32 124/80/32 121/61/32
f 103/79/33 104/56/33 119/56/33 120/79/33
f 107/80/34 108/81/34 123/81/34 124/80/34
f 93/74/35 94/58/35 109/58/35 110/74/35
f 97/63/36 98/76/36 113/76/36 114/63/36
f 96/75/37 93/74/37 110/74/37 111/75/37
f 101/57/38 102/78/38 117/78/38 118/57/38
